<?xml version="1.0" encoding="utf-8"?>
<!-- Generator: Adobe Illustrator 24.0.0, SVG Export Plug-In . SVG Version: 6.00 Build 0)  -->
<svg version="1.1" id="Capa_1" xmlns="http://www.w3.org/2000/svg" xmlns:xlink="http://www.w3.org/1999/xlink" x="0px" y="0px"
	 viewBox="0 0 613 52" style="enable-background:new 0 0 613 52;" xml:space="preserve">
<style type="text/css">
	.st0{fill:#FFFFFF;}
	.st1{fill:#CCCCCC;}
</style>
<g>
	<g>
		<g>
			<polygon class="st0" points="32.4,28.6 26.1,15.3 20.5,15.3 14.6,28.5 9.4,11.7 0.6,11.7 10.4,39.2 16.7,39.2 23.4,24.5 30,39.3 
				36.2,39.3 46.5,11.7 37.7,11.7 			"/>
			<path class="st0" d="M80.6,15c-1.4-1.2-3.1-2.2-5-2.9c-1.9-0.7-4-1.1-6.3-1.1c-2.2,0-4.4,0.4-6.4,1.1c-2,0.7-3.8,1.6-5.3,2.9
				c-1.5,1.3-2.7,2.8-3.6,4.6c-0.9,1.8-1.3,3.8-1.3,6c0,2.7,0.7,5.1,2.2,7.3s3.5,3.8,6.2,5c2.6,1.2,5.7,1.9,9.3,1.9
				c1.7,0,3.3-0.2,4.9-0.5c1.6-0.3,3.1-0.7,4.6-1.3c1.4-0.6,2.8-1.3,4-2.2l-3.7-5.3c-0.9,0.6-2,1.1-3.4,1.6
				c-1.3,0.5-3.1,0.7-5.2,0.7c-2.3,0-4.3-0.4-5.9-1c-1.6-0.6-3-1.6-3.9-2.8c-0.4-0.5-0.7-1-0.9-1.5H85L85,25
				c0.1-2.1-0.3-3.9-1.1-5.6C83.2,17.7,82.1,16.2,80.6,15z M64.8,18.6c1.3-0.5,2.9-0.7,4.6-0.7c1.4,0,2.6,0.2,3.8,0.6
				c1.2,0.4,2.1,1,2.8,1.6c0.7,0.7,1.1,1.4,1.2,2.3H60.8c0.2-0.5,0.5-1,0.8-1.5C62.4,19.9,63.5,19.1,64.8,18.6z"/>
			<path class="st0" d="M124.2,13c-2.2-1.2-4.7-1.9-7.4-1.9c-1.6,0-3.1,0.2-4.5,0.6c-1.4,0.4-2.6,0.9-3.7,1.6
				c-0.7,0.4-1.2,0.8-1.7,1.3V0.9h-8.4v38.3h7.7l0.2-2.9c0.5,0.5,1.1,0.9,1.8,1.3c1.1,0.6,2.3,1.2,3.8,1.6c1.4,0.4,3,0.6,4.6,0.6
				c2.9,0,5.4-0.6,7.6-1.9c2.2-1.2,4-2.9,5.2-5.1c1.3-2.1,1.9-4.6,1.9-7.4c0-2.8-0.6-5.2-2-7.4C128.1,15.9,126.3,14.2,124.2,13z
				 M122.1,29.3c-0.7,1.1-1.7,1.9-3,2.5c-1.3,0.6-2.8,1-4.5,1c-1.7,0-3.2-0.3-4.5-1c-1.3-0.6-2.3-1.4-3-2.5
				c-0.7-1.1-1.1-2.4-1.1-3.8c0-1.4,0.4-2.7,1.1-3.8c0.7-1.1,1.7-1.9,3-2.5c1.3-0.6,2.8-0.9,4.6-0.9c1.7,0,3.2,0.3,4.4,0.9
				c1.3,0.6,2.3,1.4,3,2.5c0.7,1.1,1.1,2.4,1.1,3.8C123.2,26.9,122.8,28.1,122.1,29.3z"/>
			<path class="st0" d="M175.6,32.9c1.3-2.1,1.9-4.6,1.9-7.4c0-2.8-0.6-5.2-2-7.4c-1.3-2.2-3.1-3.9-5.2-5.1
				c-2.2-1.2-4.7-1.9-7.4-1.9c-1.6,0-3.1,0.2-4.5,0.6c-1.4,0.4-2.6,0.9-3.7,1.6c-0.7,0.4-1.2,0.8-1.7,1.3V0.9h-8.4v38.3h7.7l0.2-2.9
				c0.5,0.5,1.1,0.9,1.8,1.3c1.1,0.6,2.3,1.2,3.8,1.6c1.4,0.4,3,0.6,4.6,0.6c2.9,0,5.4-0.6,7.6-1.9C172.6,36.7,174.4,35,175.6,32.9z
				 M168.3,29.3c-0.7,1.1-1.7,1.9-3,2.5c-1.3,0.6-2.8,1-4.5,1c-1.7,0-3.2-0.3-4.5-1c-1.3-0.6-2.3-1.4-3-2.5
				c-0.7-1.1-1.1-2.4-1.1-3.8c0-1.4,0.4-2.7,1.1-3.8c0.7-1.1,1.7-1.9,3-2.5c1.3-0.6,2.8-0.9,4.6-0.9c1.7,0,3.2,0.3,4.4,0.9
				c1.3,0.6,2.3,1.4,3,2.5c0.7,1.1,1.1,2.4,1.1,3.8C169.4,26.9,169,28.1,168.3,29.3z"/>
			<polygon class="st0" points="193,51.1 193,51.1 193,51.1 			"/>
			<path class="st0" d="M205.7,26.5c-0.5,1.2-1.1,2.4-1.5,3.6c-0.1,0.2-0.2,0.5-0.3,0.7c-0.2-0.4-0.3-0.8-0.5-1.2
				c-0.5-1.1-1.1-2.2-1.6-3.3l-7.1-14.6H185l14.5,27.1L193,51.1h8.4l6-11.7L222,11.6h-9.5L205.7,26.5z"/>
			<path class="st0" d="M270.4,30.5c1-2,1.5-4.3,1.5-6.9c0-0.2,0-0.5,0-1.1c0-0.5,0-1.1-0.1-1.7c-0.1-0.6-0.1-1.2-0.2-1.6h-20.1V26
				h11.5c-0.1,0.6-0.3,1.3-0.7,1.9c-0.5,0.8-1.3,1.6-2.3,2.2c-1,0.6-2.2,1.1-3.5,1.4c-1.3,0.4-2.8,0.5-4.3,0.5
				c-1.7,0-3.3-0.2-4.8-0.7c-1.5-0.5-2.9-1.1-4-2c-1.2-0.9-2.1-2.1-2.8-3.4c-0.7-1.4-1-3-1-4.9c0-1.6,0.3-3,1-4.3
				c0.6-1.4,1.5-2.5,2.6-3.5c1.2-1,2.5-1.8,4-2.3c1.5-0.6,3.2-0.8,5-0.8c1.6,0,3,0.2,4.3,0.6c1.3,0.4,2.5,0.8,3.7,1.4
				c1.2,0.6,2.2,1.3,3.2,2.1l5.5-5.8c-1.1-1.1-2.4-2.1-4-3c-1.6-0.9-3.5-1.6-5.6-2.2c-2.1-0.6-4.4-0.8-6.9-0.8c-3.1,0-6,0.4-8.7,1.4
				c-2.7,0.9-5,2.2-7,3.9c-2,1.7-3.5,3.7-4.6,5.9c-1.1,2.2-1.6,4.7-1.6,7.4c0,3,0.5,5.7,1.5,8c1,2.3,2.5,4.3,4.3,5.9
				c1.9,1.6,4.1,2.8,6.6,3.7c2.6,0.8,5.4,1.2,8.4,1.2s5.8-0.4,8.3-1.1c2.5-0.7,4.7-1.7,6.5-3.1C268.1,34.2,269.4,32.5,270.4,30.5z"
				/>
			<path class="st0" d="M302.7,11.1c-1.7,0-3.4,0.4-5,1.3c-1.6,0.9-3,2.1-4.2,3.5c-0.2,0.2-0.3,0.5-0.5,0.7l-0.2-5h-7.9v27.5h8.3
				V26.4c0-0.8,0.2-1.6,0.5-2.4c0.3-0.8,0.7-1.5,1.4-2.1c0.6-0.6,1.4-1.1,2.3-1.4c0.9-0.4,1.9-0.5,3.1-0.5c1,0,2,0.1,3.1,0.4
				c1.1,0.3,1.9,0.6,2.5,1l2.3-9c-0.7-0.4-1.5-0.7-2.5-0.9S303.8,11.1,302.7,11.1z"/>
			<path class="st0" d="M341,15c-0.6-0.6-1.2-1.1-2-1.6c-1.1-0.7-2.3-1.2-3.8-1.6c-1.5-0.4-3-0.6-4.7-0.6c-3,0-5.5,0.6-7.7,1.9
				c-2.2,1.2-3.9,2.9-5.2,5.1c-1.3,2.1-1.9,4.6-1.9,7.4c0,2.8,0.6,5.2,1.9,7.3s3,3.8,5.1,5c2.2,1.2,4.8,1.9,7.7,1.9
				c1.6,0,3.1-0.2,4.5-0.6c1.4-0.4,2.6-1,3.8-1.7c0.9-0.6,1.6-1.2,2.2-1.8v3.8h8.4V11.7H341V15z M340,29.3c-0.7,1.1-1.7,2-3,2.5
				c-1.3,0.6-2.8,0.9-4.6,0.9c-1.7,0-3.2-0.3-4.5-0.9c-1.3-0.6-2.3-1.4-3-2.5c-0.7-1.1-1.1-2.3-1.1-3.8c0-1.5,0.4-2.8,1.1-3.8
				s1.7-1.9,3-2.5c1.3-0.6,2.8-1,4.5-1c1.8,0,3.3,0.3,4.6,1c1.3,0.6,2.3,1.5,3,2.5s1.1,2.3,1.1,3.8C341.1,26.9,340.7,28.1,340,29.3z
				"/>
			<polygon class="st0" points="377.6,30.5 369.3,11.7 359.7,11.7 373.8,39.2 373.8,39.3 381,39.3 395.5,11.7 386.1,11.7 			"/>
			<path class="st0" d="M429.1,11.6l-6.8,14.8c-0.5,1.2-1.1,2.4-1.5,3.6c-0.1,0.2-0.2,0.5-0.3,0.7c-0.2-0.4-0.3-0.8-0.5-1.2
				c-0.5-1.1-1.1-2.2-1.6-3.3l-7.1-14.6h-9.6l14.5,27.1l-6.5,12.3h8.4l6-11.7l14.5-27.8H429.1z"/>
			<polygon class="st0" points="409.6,51.1 409.7,51.1 409.6,51.1 			"/>
		</g>
	</g>
	<g>
		<path class="st1" d="M505,38l6.6-24h2.4l-6.6,24H505z"/>
		<path class="st1" d="M527.9,36.9c-1.3,0-2.4-0.3-3.4-0.9s-1.7-1.5-2.2-2.8c-0.5-1.2-0.8-2.9-0.8-4.8c0-1.9,0.3-3.5,0.8-4.7
			c0.5-1.2,1.3-2.1,2.2-2.7c0.9-0.6,2-0.9,3.2-0.9c0.7,0,1.4,0.1,2,0.2s1.2,0.4,1.6,0.8c0.5,0.3,0.9,0.8,1.2,1.3h0.2v-8h3.2v22.1
			h-2.6l-0.3-2.2h-0.2c-0.5,0.9-1.2,1.5-2.1,1.9C529.9,36.6,529,36.9,527.9,36.9z M528.8,34.1c0.9,0,1.7-0.2,2.3-0.6
			c0.6-0.4,1-1,1.3-1.8c0.3-0.8,0.4-1.8,0.4-2.9v-0.4c0-1-0.1-1.8-0.3-2.5c-0.2-0.7-0.4-1.3-0.8-1.7c-0.3-0.4-0.8-0.8-1.3-1
			s-1-0.3-1.7-0.3c-0.9,0-1.7,0.2-2.3,0.6s-1,1-1.3,1.8c-0.3,0.8-0.4,1.8-0.4,3.1v0.6c0,1.3,0.1,2.3,0.4,3.1
			c0.3,0.8,0.7,1.4,1.3,1.7S527.9,34.1,528.8,34.1z"/>
		<path class="st1" d="M540.1,17.6v-3.2h3.2v3.2H540.1z M540.1,36.5V20.4h3.2v16.1H540.1z"/>
		<path class="st1" d="M553.3,36.9c-1.1,0-2.1-0.1-3-0.4c-0.9-0.2-1.6-0.6-2.1-1c-0.6-0.4-1-0.9-1.3-1.5c-0.3-0.6-0.4-1.3-0.4-2
			c0-0.1,0-0.2,0-0.3c0-0.1,0-0.2,0-0.2h3.1c0,0.1,0,0.1,0,0.2s0,0.1,0,0.2c0,0.6,0.2,1.1,0.5,1.5c0.3,0.4,0.8,0.6,1.4,0.8
			s1.2,0.2,1.9,0.2c0.6,0,1.2-0.1,1.7-0.2c0.5-0.2,0.9-0.4,1.3-0.7c0.3-0.3,0.5-0.7,0.5-1.2c0-0.6-0.2-1.1-0.6-1.4
			c-0.4-0.3-1-0.6-1.7-0.8c-0.7-0.2-1.4-0.4-2.2-0.6c-0.7-0.2-1.3-0.4-2-0.6s-1.3-0.5-1.8-0.8c-0.5-0.3-1-0.8-1.3-1.3
			c-0.3-0.5-0.5-1.2-0.5-2c0-0.8,0.2-1.4,0.5-2c0.3-0.6,0.8-1,1.4-1.4c0.6-0.4,1.3-0.7,2.1-0.9c0.8-0.2,1.7-0.3,2.6-0.3
			c1,0,1.9,0.1,2.7,0.3c0.8,0.2,1.4,0.5,2,0.9c0.5,0.4,1,0.9,1.2,1.4c0.3,0.5,0.4,1.1,0.4,1.7c0,0.1,0,0.3,0,0.4c0,0.1,0,0.2,0,0.3
			h-3.1v-0.3c0-0.4-0.1-0.8-0.3-1.1c-0.2-0.3-0.6-0.6-1.1-0.8c-0.5-0.2-1.1-0.3-1.9-0.3c-0.5,0-1,0-1.4,0.1c-0.4,0.1-0.7,0.2-1,0.4
			s-0.5,0.4-0.6,0.6c-0.1,0.2-0.2,0.5-0.2,0.8c0,0.5,0.2,0.8,0.5,1.1c0.3,0.3,0.8,0.5,1.3,0.6c0.6,0.2,1.1,0.4,1.8,0.6
			c0.7,0.2,1.5,0.4,2.2,0.6c0.8,0.2,1.5,0.5,2.1,0.8c0.6,0.3,1.2,0.8,1.6,1.3c0.4,0.6,0.6,1.3,0.6,2.3c0,0.9-0.2,1.6-0.5,2.3
			c-0.3,0.7-0.8,1.2-1.5,1.6c-0.6,0.4-1.4,0.7-2.2,0.9C555.2,36.8,554.3,36.9,553.3,36.9z"/>
		<path class="st1" d="M570,36.9c-1.7,0-3-0.3-4.1-0.9c-1.1-0.6-2-1.5-2.5-2.8c-0.6-1.2-0.9-2.8-0.9-4.7c0-1.9,0.3-3.5,0.9-4.8
			c0.6-1.2,1.4-2.1,2.5-2.8s2.5-0.9,4.2-0.9c1.5,0,2.8,0.3,3.8,0.9c1,0.6,1.8,1.5,2.3,2.6c0.5,1.2,0.8,2.7,0.8,4.5v1.2h-11.3
			c0,1.1,0.2,2.1,0.5,2.9s0.8,1.3,1.4,1.7c0.6,0.4,1.4,0.5,2.4,0.5c0.6,0,1.1-0.1,1.6-0.2s0.9-0.4,1.2-0.7c0.3-0.3,0.6-0.7,0.8-1.1
			c0.2-0.4,0.3-0.9,0.3-1.4h3.1c0,1-0.2,1.8-0.5,2.5c-0.3,0.7-0.8,1.4-1.4,1.8c-0.6,0.5-1.4,0.9-2.2,1.1
			C572,36.7,571.1,36.9,570,36.9z M565.9,26.9h7.9c0-0.8-0.1-1.5-0.3-2c-0.2-0.5-0.4-1-0.7-1.3c-0.3-0.3-0.7-0.6-1.2-0.7
			s-1-0.2-1.5-0.2c-0.9,0-1.6,0.2-2.2,0.5c-0.6,0.3-1.1,0.8-1.4,1.4C566.1,25.1,565.9,25.9,565.9,26.9z"/>
		<path class="st1" d="M580.3,36.5V20.4h2.6l0.3,2.3h0.2c0.4-0.6,0.8-1.1,1.4-1.5c0.5-0.4,1.1-0.7,1.8-0.9c0.6-0.2,1.4-0.3,2.1-0.3
			c1,0,1.9,0.2,2.7,0.5c0.8,0.4,1.4,0.9,1.8,1.7c0.4,0.8,0.7,1.9,0.7,3.2v11h-3.2V26c0-0.6-0.1-1.1-0.2-1.5c-0.2-0.4-0.4-0.7-0.7-1
			c-0.3-0.2-0.6-0.4-1-0.5c-0.4-0.1-0.8-0.2-1.3-0.2c-0.7,0-1.4,0.2-2,0.5c-0.6,0.4-1.1,0.9-1.5,1.5c-0.4,0.6-0.5,1.4-0.5,2.2v9.4
			H580.3z M582.1,17.7c0-0.6,0.1-1.2,0.3-1.7c0.2-0.5,0.5-0.9,0.9-1.2c0.4-0.3,0.9-0.5,1.6-0.5c0.5,0,1,0.1,1.5,0.3
			c0.5,0.2,0.9,0.4,1.4,0.5c0.5,0.2,0.9,0.3,1.4,0.3c0.3,0,0.5-0.1,0.7-0.3c0.2-0.2,0.3-0.4,0.3-0.8h1.9c0,0.6-0.1,1.1-0.3,1.6
			c-0.2,0.5-0.5,0.9-0.9,1.2c-0.4,0.3-0.9,0.5-1.6,0.5c-0.5,0-1-0.1-1.5-0.3c-0.5-0.2-0.9-0.4-1.4-0.6c-0.5-0.2-0.9-0.3-1.4-0.3
			c-0.3,0-0.5,0.1-0.7,0.3s-0.3,0.5-0.3,0.8H582.1z"/>
		<path class="st1" d="M604.7,36.9c-1.7,0-3.1-0.3-4.2-0.9c-1.2-0.6-2-1.5-2.6-2.8c-0.6-1.2-0.9-2.8-0.9-4.7c0-1.9,0.3-3.5,0.9-4.8
			c0.6-1.2,1.4-2.1,2.6-2.8c1.2-0.6,2.6-0.9,4.2-0.9c1.7,0,3.1,0.3,4.3,0.9s2,1.5,2.6,2.8c0.6,1.2,0.9,2.8,0.9,4.8
			c0,1.9-0.3,3.5-0.9,4.7c-0.6,1.2-1.4,2.2-2.6,2.8C607.8,36.6,606.4,36.9,604.7,36.9z M604.7,34.2c1,0,1.9-0.2,2.5-0.6
			c0.7-0.4,1.1-1,1.5-1.8c0.3-0.8,0.5-1.8,0.5-3.1v-0.6c0-1.2-0.2-2.3-0.5-3.1c-0.3-0.8-0.8-1.4-1.5-1.8c-0.7-0.4-1.5-0.6-2.5-0.6
			c-1,0-1.8,0.2-2.5,0.6s-1.1,1-1.5,1.8c-0.3,0.8-0.5,1.8-0.5,3.1v0.6c0,1.2,0.2,2.3,0.5,3.1c0.3,0.8,0.8,1.4,1.5,1.8
			C602.8,34,603.7,34.2,604.7,34.2z"/>
	</g>
</g>
</svg>
