<?xml version="1.0" encoding="utf-8"?>
<!-- Generator: Adobe Illustrator 24.0.0, SVG Export Plug-In . SVG Version: 6.00 Build 0)  -->
<svg version="1.1" id="Capa_1" xmlns="http://www.w3.org/2000/svg" xmlns:xlink="http://www.w3.org/1999/xlink" x="0px" y="0px"
	 viewBox="0 0 48 48" style="enable-background:new 0 0 48 48;" xml:space="preserve">
<style type="text/css">
	.st0{fill:#181818;}
	.st1{fill:#A7F3D0;}
</style>
<g>
	<path class="st0" d="M6.7,0.7h34.6c3.3,0,6,2.7,6,6v34.6c0,3.3-2.7,6-6,6H6.7c-3.3,0-6-2.7-6-6V6.7C0.7,3.4,3.4,0.7,6.7,0.7z"/>
</g>
<g>
	<polygon class="st1" points="18,27 15.5,21.8 13.3,21.8 11,27 9,20.4 5.5,20.4 9.4,31.1 11.8,31.1 14.4,25.4 17,31.1 19.5,31.1 
		23.5,20.4 20,20.4 	"/>
	<path class="st1" d="M42.4,23.9c0-0.2,0-0.5-0.1-0.6h-7.8V26h4.5c0,0.2-0.1,0.5-0.3,0.7c-0.2,0.3-0.5,0.6-0.9,0.8
		c-0.4,0.2-0.8,0.4-1.4,0.6c-0.5,0.1-1.1,0.2-1.7,0.2c-0.7,0-1.3-0.1-1.9-0.3c-0.6-0.2-1.1-0.4-1.6-0.8c-0.5-0.3-0.8-0.8-1.1-1.3
		c-0.3-0.5-0.4-1.2-0.4-1.9c0-0.6,0.1-1.2,0.4-1.7c0.2-0.5,0.6-1,1-1.4c0.4-0.4,1-0.7,1.6-0.9c0.6-0.2,1.2-0.3,1.9-0.3
		c0.6,0,1.2,0.1,1.7,0.2c0.5,0.1,1,0.3,1.4,0.6c0.4,0.2,0.9,0.5,1.3,0.8l2.1-2.3c-0.4-0.4-0.9-0.8-1.6-1.2c-0.6-0.3-1.4-0.6-2.2-0.9
		c-0.8-0.2-1.7-0.3-2.7-0.3c-1.2,0-2.4,0.2-3.4,0.5c-1,0.4-1.9,0.9-2.7,1.5c-0.8,0.7-1.4,1.4-1.8,2.3c-0.4,0.9-0.6,1.8-0.6,2.9
		c0,1.2,0.2,2.2,0.6,3.1c0.4,0.9,1,1.7,1.7,2.3c0.7,0.6,1.6,1.1,2.6,1.4c1,0.3,2.1,0.5,3.3,0.5c1.2,0,2.2-0.1,3.2-0.4
		c1-0.3,1.8-0.7,2.5-1.2c0.7-0.5,1.3-1.2,1.6-2c0.4-0.8,0.6-1.7,0.6-2.7c0-0.1,0-0.2,0-0.4C42.5,24.4,42.5,24.2,42.4,23.9z"/>
</g>
</svg>
