<?xml version="1.0" encoding="utf-8"?>
<!-- Generator: Adobe Illustrator 24.0.0, SVG Export Plug-In . SVG Version: 6.00 Build 0)  -->
<svg version="1.1" id="Capa_1" xmlns="http://www.w3.org/2000/svg" xmlns:xlink="http://www.w3.org/1999/xlink" x="0px" y="0px"
	 viewBox="0 0 440 52" style="enable-background:new 0 0 440 52;" xml:space="preserve">
<style type="text/css">
	.st0{fill:#F2F2F2;}
	.st1{fill:#A7F3D0;}
</style>
<g>
	<g>
		<g>
			<polygon class="st0" points="32.8,28.6 26.5,15.3 20.9,15.3 15,28.5 9.8,11.7 1,11.7 10.9,39.2 17.2,39.2 23.8,24.5 30.4,39.3 
				36.6,39.3 46.9,11.7 38.1,11.7 			"/>
			<path class="st0" d="M81,15c-1.4-1.2-3.1-2.2-5-2.9c-1.9-0.7-4-1.1-6.3-1.1c-2.2,0-4.4,0.4-6.4,1.1c-2,0.7-3.8,1.6-5.3,2.9
				c-1.5,1.3-2.7,2.8-3.6,4.6c-0.9,1.8-1.3,3.8-1.3,6c0,2.7,0.7,5.1,2.2,7.3s3.5,3.8,6.2,5c2.6,1.2,5.7,1.9,9.3,1.9
				c1.7,0,3.3-0.2,4.9-0.5c1.6-0.3,3.1-0.7,4.6-1.3c1.4-0.6,2.8-1.3,4-2.2l-3.7-5.3c-0.9,0.6-2,1.1-3.4,1.6
				c-1.3,0.5-3.1,0.7-5.2,0.7c-2.3,0-4.3-0.4-5.9-1c-1.6-0.6-3-1.6-3.9-2.8c-0.4-0.5-0.7-1-0.9-1.5h24.1l0.1-2.4
				c0.1-2.1-0.3-3.9-1.1-5.6C83.6,17.7,82.5,16.2,81,15z M65.2,18.6c1.3-0.5,2.9-0.7,4.6-0.7c1.4,0,2.6,0.2,3.8,0.6
				c1.2,0.4,2.1,1,2.8,1.6c0.7,0.7,1.1,1.4,1.2,2.3H61.2c0.2-0.5,0.5-1,0.8-1.5C62.8,19.9,63.9,19.1,65.2,18.6z"/>
			<path class="st0" d="M124.6,13c-2.2-1.2-4.7-1.9-7.4-1.9c-1.6,0-3.1,0.2-4.5,0.6c-1.4,0.4-2.6,0.9-3.7,1.6
				c-0.7,0.4-1.2,0.8-1.7,1.3V0.9h-8.4v38.3h7.7l0.2-2.9c0.5,0.5,1.1,0.9,1.8,1.3c1.1,0.6,2.3,1.2,3.8,1.6c1.4,0.4,3,0.6,4.6,0.6
				c2.9,0,5.4-0.6,7.6-1.9c2.2-1.2,4-2.9,5.2-5.1c1.3-2.1,1.9-4.6,1.9-7.4c0-2.8-0.6-5.2-2-7.4C128.5,15.9,126.7,14.2,124.6,13z
				 M122.5,29.3c-0.7,1.1-1.7,1.9-3,2.5c-1.3,0.6-2.8,1-4.5,1c-1.7,0-3.2-0.3-4.5-1c-1.3-0.6-2.3-1.4-3-2.5
				c-0.7-1.1-1.1-2.4-1.1-3.8c0-1.4,0.4-2.7,1.1-3.8c0.7-1.1,1.7-1.9,3-2.5c1.3-0.6,2.8-0.9,4.6-0.9c1.7,0,3.2,0.3,4.4,0.9
				c1.3,0.6,2.3,1.4,3,2.5c0.7,1.1,1.1,2.4,1.1,3.8C123.6,26.9,123.2,28.1,122.5,29.3z"/>
			<path class="st0" d="M176,32.9c1.3-2.1,1.9-4.6,1.9-7.4c0-2.8-0.6-5.2-2-7.4c-1.3-2.2-3.1-3.9-5.2-5.1c-2.2-1.2-4.7-1.9-7.4-1.9
				c-1.6,0-3.1,0.2-4.5,0.6c-1.4,0.4-2.6,0.9-3.7,1.6c-0.7,0.4-1.2,0.8-1.7,1.3V0.9H145v38.3h7.7l0.2-2.9c0.5,0.5,1.1,0.9,1.8,1.3
				c1.1,0.6,2.3,1.2,3.8,1.6c1.4,0.4,3,0.6,4.6,0.6c2.9,0,5.4-0.6,7.6-1.9C173,36.7,174.8,35,176,32.9z M168.7,29.3
				c-0.7,1.1-1.7,1.9-3,2.5c-1.3,0.6-2.8,1-4.5,1c-1.7,0-3.2-0.3-4.5-1c-1.3-0.6-2.3-1.4-3-2.5c-0.7-1.1-1.1-2.4-1.1-3.8
				c0-1.4,0.4-2.7,1.1-3.8c0.7-1.1,1.7-1.9,3-2.5c1.3-0.6,2.8-0.9,4.6-0.9c1.7,0,3.2,0.3,4.4,0.9c1.3,0.6,2.3,1.4,3,2.5
				c0.7,1.1,1.1,2.4,1.1,3.8C169.8,26.9,169.4,28.1,168.7,29.3z"/>
			<polygon class="st0" points="193.4,51.1 193.4,51.1 193.4,51.1 			"/>
			<path class="st0" d="M206.1,26.5c-0.5,1.2-1.1,2.4-1.5,3.6c-0.1,0.2-0.2,0.5-0.3,0.7c-0.2-0.4-0.3-0.8-0.5-1.2
				c-0.5-1.1-1.1-2.2-1.6-3.3l-7.1-14.6h-9.6l14.5,27.1l-6.5,12.3h8.4l6-11.7l14.5-27.8h-9.5L206.1,26.5z"/>
			<path class="st0" d="M270.8,30.5c1-2,1.5-4.3,1.5-6.9c0-0.2,0-0.5,0-1.1c0-0.5,0-1.1-0.1-1.7c-0.1-0.6-0.1-1.2-0.2-1.6H252V26
				h11.5c-0.1,0.6-0.3,1.3-0.7,1.9c-0.5,0.8-1.3,1.6-2.3,2.2c-1,0.6-2.2,1.1-3.5,1.4c-1.3,0.4-2.8,0.5-4.3,0.5
				c-1.7,0-3.3-0.2-4.8-0.7c-1.5-0.5-2.9-1.1-4-2c-1.2-0.9-2.1-2.1-2.8-3.4c-0.7-1.4-1-3-1-4.9c0-1.6,0.3-3,1-4.3
				c0.6-1.4,1.5-2.5,2.6-3.5c1.2-1,2.5-1.8,4-2.3c1.5-0.6,3.2-0.8,5-0.8c1.6,0,3,0.2,4.3,0.6c1.3,0.4,2.5,0.8,3.7,1.4
				c1.2,0.6,2.2,1.3,3.2,2.1l5.5-5.8c-1.1-1.1-2.4-2.1-4-3c-1.6-0.9-3.5-1.6-5.6-2.2c-2.1-0.6-4.4-0.8-6.9-0.8c-3.1,0-6,0.4-8.7,1.4
				c-2.7,0.9-5,2.2-7,3.9c-2,1.7-3.5,3.7-4.6,5.9c-1.1,2.2-1.6,4.7-1.6,7.4c0,3,0.5,5.7,1.5,8c1,2.3,2.5,4.3,4.3,5.9
				c1.9,1.6,4.1,2.8,6.6,3.7c2.6,0.8,5.4,1.2,8.4,1.2s5.8-0.4,8.3-1.1c2.5-0.7,4.7-1.7,6.5-3.1C268.5,34.2,269.8,32.5,270.8,30.5z"
				/>
			<path class="st0" d="M303.1,11.1c-1.7,0-3.4,0.4-5,1.3c-1.6,0.9-3,2.1-4.2,3.5c-0.2,0.2-0.3,0.5-0.5,0.7l-0.2-5h-7.9v27.5h8.3
				V26.4c0-0.8,0.2-1.6,0.5-2.4c0.3-0.8,0.7-1.5,1.4-2.1c0.6-0.6,1.4-1.1,2.3-1.4c0.9-0.4,1.9-0.5,3.1-0.5c1,0,2,0.1,3.1,0.4
				c1.1,0.3,1.9,0.6,2.5,1l2.3-9c-0.7-0.4-1.5-0.7-2.5-0.9S304.2,11.1,303.1,11.1z"/>
			<path class="st0" d="M341.4,15c-0.6-0.6-1.2-1.1-2-1.6c-1.1-0.7-2.3-1.2-3.8-1.6c-1.5-0.4-3-0.6-4.7-0.6c-3,0-5.5,0.6-7.7,1.9
				c-2.2,1.2-3.9,2.9-5.2,5.1c-1.3,2.1-1.9,4.6-1.9,7.4c0,2.8,0.6,5.2,1.9,7.3s3,3.8,5.1,5c2.2,1.2,4.8,1.9,7.7,1.9
				c1.6,0,3.1-0.2,4.5-0.6c1.4-0.4,2.6-1,3.8-1.7c0.9-0.6,1.6-1.2,2.2-1.8v3.8h8.4V11.7h-8.3V15z M340.4,29.3c-0.7,1.1-1.7,2-3,2.5
				c-1.3,0.6-2.8,0.9-4.6,0.9c-1.7,0-3.2-0.3-4.5-0.9c-1.3-0.6-2.3-1.4-3-2.5c-0.7-1.1-1.1-2.3-1.1-3.8c0-1.5,0.4-2.8,1.1-3.8
				s1.7-1.9,3-2.5c1.3-0.6,2.8-1,4.5-1c1.8,0,3.3,0.3,4.6,1c1.3,0.6,2.3,1.5,3,2.5s1.1,2.3,1.1,3.8
				C341.5,26.9,341.1,28.1,340.4,29.3z"/>
			<polygon class="st0" points="378,30.5 369.7,11.7 360.1,11.7 374.2,39.2 374.2,39.3 381.4,39.3 395.9,11.7 386.5,11.7 			"/>
			<path class="st0" d="M429.5,11.6l-6.8,14.8c-0.5,1.2-1.1,2.4-1.5,3.6c-0.1,0.2-0.2,0.5-0.3,0.7c-0.2-0.4-0.3-0.8-0.5-1.2
				c-0.5-1.1-1.1-2.2-1.6-3.3l-7.1-14.6H402l14.5,27.1l-6.5,12.3h8.4l6-11.7L439,11.6H429.5z"/>
			<polygon class="st0" points="410,51.1 410.1,51.1 410,51.1 			"/>
		</g>
	</g>
</g>
</svg>
